<svg width="24" height="25" viewBox="0 0 24 25" fill="none" xmlns="http://www.w3.org/2000/svg">
<circle cx="12" cy="12.1652" r="12" fill="#9356DC"/>
<path d="M15.5341 18.256H8.75479V17.0996L12.1133 13.4364C12.598 12.8963 12.9419 12.4461 13.1451 12.0861C13.3528 11.7214 13.4567 11.3567 13.4567 10.992C13.4567 10.5118 13.3205 10.1241 13.0481 9.8286C12.7804 9.53315 12.418 9.38542 11.9609 9.38542C11.4162 9.38542 10.9938 9.55161 10.6937 9.884C10.3936 10.2164 10.2436 10.6711 10.2436 11.2482H8.5609C8.5609 10.6342 8.6994 10.0825 8.97638 9.59316C9.25799 9.0992 9.65732 8.71603 10.1744 8.44366C10.696 8.17129 11.2962 8.0351 11.9748 8.0351C12.9535 8.0351 13.7244 8.28208 14.2876 8.77604C14.8555 9.26539 15.1394 9.94401 15.1394 10.8119C15.1394 11.3151 14.9963 11.8437 14.7101 12.3977C14.4284 12.947 13.9645 13.5726 13.3182 14.2743L10.853 16.9126H15.5341V18.256Z" fill="#F7F7F7"/>
</svg>
